# xmcd
#
# Track frame offsets:
#	150
#	16788
#	32598
#	44597
#	59299
#	72552
#	90353
#	108517
#	120928
#	132639
#	141078
#	159967
#	177532
#	192575
#	202059
#
# Disc length: 2913 seconds
#
# Revision: 0
# Processed by: cddbd v1.5.2PL0 Copyright (c) Steve Scherf et al.
# Submitted via: EasyCDDAExtractor 10.2.0.1
#
DISCID=d70b5f0f
DTITLE=Various Artist - Circuit Rider Records Vol. 35
DYEAR=2001
DGENRE=Gospel
TTITLE0=Ron Hughes - Sailing On
TTITLE1=Kenny Robbins - Telling The Devil Where To Go
TTITLE2=Lyle Stubbs - I've Got Jesus Back Now
TTITLE3=Teresa Gibbs - Black Heart Made White
TTITLE4=Tony McGill - One Day Closer
TTITLE5=Ray Owens - When I Grow Up
TTITLE6=Sharon Marsh - The Ten Commandments Are Not Muptiple Choice
TTITLE7=Gina White - Satin Cross
TTITLE8=Mary Cox McCain - Take Care Of The Children
TTITLE9=Glenis Sanders - New Day
TTITLE10=Marvin Morrow - Jake The Jesus Man
TTITLE11=Debbie O'Neal - A Call To Your Arms
TTITLE12=Dobbie Poyner - God Can Roll Your Stone Away
TTITLE13=The Staffords - The Winning Side
TTITLE14=WC Taylor - I've Been Called
EXTD=
EXTT0=
EXTT1=
EXTT2=
EXTT3=
EXTT4=
EXTT5=
EXTT6=
EXTT7=
EXTT8=
EXTT9=
EXTT10=
EXTT11=
EXTT12=
EXTT13=
EXTT14=
PLAYORDER=
